<svg width="215" height="54" viewBox="0 0 215 54" fill="none" xmlns="http://www.w3.org/2000/svg">
<path fill-rule="evenodd" clip-rule="evenodd" d="M94.3743 24.9812C94.1337 25.3945 94 25.852 94 26.3333C94 28.1743 95.9555 29.6667 98.3678 29.6667C100.78 29.6667 102.736 28.1743 102.736 26.3333C102.736 24.4924 100.78 23 98.3678 23C97.737 23 97.1375 23.102 96.596 23.2857L100.1 25.9595L97.878 27.6551L94.3743 24.9812Z" fill="#F2F2F2" fill-opacity="0.9"/>
<path fill-rule="evenodd" clip-rule="evenodd" d="M115.839 36.3333C113.427 36.3333 111.471 37.8257 111.471 39.6667C111.471 41.5076 113.427 43 115.839 43C116.47 43 117.069 42.8979 117.611 42.7143L114.107 40.0405L116.329 38.3449L119.833 41.0188C120.073 40.6056 120.207 40.148 120.207 39.6667C120.207 37.8257 118.251 36.3333 115.839 36.3333Z" fill="#F2F2F2" fill-opacity="0.9"/>
<path d="M100.118 25.9982L116.357 38.3912L114.168 40.0623L97.9286 27.6693L100.118 25.9982Z" fill="#F2F2F2" fill-opacity="0.9"/>
<path fill-rule="evenodd" clip-rule="evenodd" d="M102.736 39.6667C102.736 37.8257 100.78 36.3333 98.3678 36.3333C95.9555 36.3333 94 37.8257 94 39.6667C94 40.148 94.1337 40.6056 94.3743 41.0188L97.878 38.345L100.1 40.0405L96.596 42.7143C97.1375 42.898 97.7371 43 98.3678 43C100.78 43 102.736 41.5076 102.736 39.6667Z" fill="#F2F2F2" fill-opacity="0.9"/>
<path fill-rule="evenodd" clip-rule="evenodd" d="M117.611 23.2857C117.069 23.102 116.47 23 115.839 23C113.427 23 111.471 24.4924 111.471 26.3333C111.471 28.1743 113.427 29.6667 115.839 29.6667C118.251 29.6667 120.207 28.1743 120.207 26.3333C120.207 25.852 120.073 25.3944 119.833 24.9812L116.329 27.655L114.107 25.9595L117.611 23.2857Z" fill="#F2F2F2" fill-opacity="0.9"/>
<path d="M97.9286 38.3308L114.168 25.9378L116.357 27.6088L100.118 40.0018L97.9286 38.3308Z" fill="#F2F2F2" fill-opacity="0.9"/>
<path d="M9.99448 43H3.68588V14.9922H9.99448V43ZM38.0492 20.1289H30.0609V43H23.7328V20.1289H15.7835V14.9922H38.0492V20.1289ZM54.0921 34.4844H43.4085V30.168H54.0921V34.4844ZM78.182 20.1289H68.2992V27.0039H77.3812V32.1211H68.2992V43H61.9906V14.9922H78.182V20.1289ZM87.3304 19.8359C86.2887 19.8359 85.4359 19.5299 84.7718 18.918C84.1078 18.293 83.7757 17.5312 83.7757 16.6328C83.7757 15.7083 84.1078 14.9531 84.7718 14.3672C85.4359 13.7812 86.2887 13.4883 87.3304 13.4883C88.3851 13.4883 89.238 13.7812 89.889 14.3672C90.5531 14.9531 90.8851 15.7083 90.8851 16.6328C90.8851 17.5703 90.5531 18.3385 89.889 18.9375C89.238 19.5365 88.3851 19.8359 87.3304 19.8359ZM90.3773 43H84.2054V23H90.3773V43ZM141.651 34.7578H128.604C128.812 37.6615 130.642 39.1133 134.092 39.1133C136.293 39.1133 138.226 38.5924 139.893 37.5508V42.0039C138.044 42.9935 135.642 43.4883 132.686 43.4883C129.457 43.4883 126.95 42.5964 125.166 40.8125C123.382 39.0156 122.491 36.5156 122.491 33.3125C122.491 29.9922 123.454 27.362 125.381 25.4219C127.308 23.4818 129.678 22.5117 132.491 22.5117C135.407 22.5117 137.66 23.3776 139.248 25.1094C140.85 26.8411 141.651 29.1914 141.651 32.1602V34.7578ZM135.928 30.9688C135.928 28.1042 134.769 26.6719 132.452 26.6719C131.462 26.6719 130.603 27.082 129.873 27.9023C129.157 28.7227 128.721 29.7448 128.565 30.9688H135.928ZM160.369 28.5664C159.627 28.1628 158.761 27.9609 157.772 27.9609C156.431 27.9609 155.382 28.4557 154.627 29.4453C153.872 30.4219 153.494 31.7565 153.494 33.4492V43H147.323V23H153.494V26.7109H153.573C154.549 24.0026 156.307 22.6484 158.846 22.6484C159.497 22.6484 160.005 22.7266 160.369 22.8828V28.5664Z" fill="#F2F2F2" fill-opacity="0.9"/>
</svg>
