<svg xmlns="http://www.w3.org/2000/svg" width="1920" height="700"><path d="M909,321L910,138L739,123Z" fill="#97acd1" stroke="#97acd1" stroke-width="1.51"/><path d="M739,123L695,302L909,321Z" fill="#96aad0" stroke="#96aad0" stroke-width="1.51"/><path d="M695,302L776,544L909,321Z" fill="#919ac9" stroke="#919ac9" stroke-width="1.51"/><path d="M534,106L559,334L695,302Z" fill="#9bb4d6" stroke="#9bb4d6" stroke-width="1.51"/><path d="M910,138L947,-40L739,123Z" fill="#a0b3d6" stroke="#a0b3d6" stroke-width="1.51"/><path d="M1136,137L947,-40L910,138Z" fill="#9dacd2" stroke="#9dacd2" stroke-width="1.51"/><path d="M739,123L534,106L695,302Z" fill="#9db9d8" stroke="#9db9d8" stroke-width="1.51"/><path d="M597,-63L534,106L739,123Z" fill="#a8c2de" stroke="#a8c2de" stroke-width="1.51"/><path d="M567,534L776,544L695,302Z" fill="#9599c7" stroke="#9599c7" stroke-width="1.51"/><path d="M909,321L1136,137L910,138Z" fill="#94a4cd" stroke="#94a4cd" stroke-width="1.51"/><path d="M1229,376L1136,137L909,321Z" fill="#9095c6" stroke="#9095c6" stroke-width="1.51"/><path d="M947,-40L807,-131L739,123Z" fill="#a9bbda" stroke="#a9bbda" stroke-width="1.51"/><path d="M807,-131L597,-63L739,123Z" fill="#adc2dd" stroke="#adc2dd" stroke-width="1.51"/><path d="M776,544L993,549L909,321Z" fill="#8f8cc1" stroke="#8f8cc1" stroke-width="1.51"/><path d="M559,334L567,534L695,302Z" fill="#96a5cd" stroke="#96a5cd" stroke-width="1.51"/><path d="M286,377L567,534L559,334Z" fill="#9da6cf" stroke="#9da6cf" stroke-width="1.51"/><path d="M993,549L1229,376L909,321Z" fill="#8d8ac0" stroke="#8d8ac0" stroke-width="1.51"/><path d="M986,-343L785,-302L807,-131Z" fill="#bcc8e1" stroke="#bcc8e1" stroke-width="1.51"/><path d="M1136,137L1146,-89L947,-40Z" fill="#a4abd2" stroke="#a4abd2" stroke-width="1.51"/><path d="M1329,104L1146,-89L1136,137Z" fill="#a1a1cc" stroke="#a1a1cc" stroke-width="1.51"/><path d="M993,549L1142,621L1229,376Z" fill="#8d79b7" stroke="#8d79b7" stroke-width="1.51"/><path d="M993,787L1142,621L993,549Z" fill="#8d6fb2" stroke="#8d6fb2" stroke-width="1.51"/><path d="M993,787L993,549L776,544Z" fill="#8e79b7" stroke="#8e79b7" stroke-width="1.51"/><path d="M534,106L282,178L559,334Z" fill="#a4bddb" stroke="#a4bddb" stroke-width="1.51"/><path d="M597,-63L354,-12L534,106Z" fill="#b2c9e1" stroke="#b2c9e1" stroke-width="1.51"/><path d="M370,-230L354,-12L597,-63Z" fill="#bfd3e6" stroke="#bfd3e6" stroke-width="1.51"/><path d="M1229,376L1329,104L1136,137Z" fill="#9494c5" stroke="#9494c5" stroke-width="1.51"/><path d="M1437,346L1329,104L1229,376Z" fill="#9187be" stroke="#9187be" stroke-width="1.51"/><path d="M807,-131L785,-302L597,-63Z" fill="#b9cbe2" stroke="#b9cbe2" stroke-width="1.51"/><path d="M986,-343L807,-131L947,-40Z" fill="#b5c0dd" stroke="#b5c0dd" stroke-width="1.51"/><path d="M354,-12L282,178L534,106Z" fill="#b0c8e1" stroke="#b0c8e1" stroke-width="1.51"/><path d="M282,178L286,377L559,334Z" fill="#a3b6d7" stroke="#a3b6d7" stroke-width="1.51"/><path d="M757,824L776,544L538,769Z" fill="#947dba" stroke="#947dba" stroke-width="1.51"/><path d="M757,824L993,787L776,544Z" fill="#9074b5" stroke="#9074b5" stroke-width="1.51"/><path d="M1146,-89L986,-343L947,-40Z" fill="#b2b9d9" stroke="#b2b9d9" stroke-width="1.51"/><path d="M1212,-334L986,-343L1146,-89Z" fill="#bab8d9" stroke="#bab8d9" stroke-width="1.51"/><path d="M538,769L776,544L567,534Z" fill="#968ac0" stroke="#968ac0" stroke-width="1.51"/><path d="M1329,104L1322,-101L1146,-89Z" fill="#a7a1cd" stroke="#a7a1cd" stroke-width="1.51"/><path d="M326,727L538,769L567,534Z" fill="#9d89c0" stroke="#9d89c0" stroke-width="1.51"/><path d="M286,377L295,560L567,534Z" fill="#a2a0cc" stroke="#a2a0cc" stroke-width="1.51"/><path d="M1359,576L1229,376L1142,621Z" fill="#8c70b3" stroke="#8c70b3" stroke-width="1.51"/><path d="M1359,576L1437,346L1229,376Z" fill="#8d75b6" stroke="#8d75b6" stroke-width="1.51"/><path d="M1625,-78L1390,-244L1322,-101Z" fill="#b19dcc" stroke="#b19dcc" stroke-width="1.51"/><path d="M785,-302L539,-344L597,-63Z" fill="#c1d4e8" stroke="#c1d4e8" stroke-width="1.51"/><path d="M986,-343L539,-344L785,-302Z" fill="#c3d0e5" stroke="#c3d0e5" stroke-width="1.51"/><path d="M539,-344L370,-230L597,-63Z" fill="#c5d8e9" stroke="#c5d8e9" stroke-width="1.51"/><path d="M354,-12L172,-53L282,178Z" fill="#bacfe4" stroke="#bacfe4" stroke-width="1.51"/><path d="M1419,747L1359,576L1142,621Z" fill="#8b5fab" stroke="#8b5fab" stroke-width="1.51"/><path d="M993,787L1151,802L1142,621Z" fill="#8c63ac" stroke="#8c63ac" stroke-width="1.51"/><path d="M971,928L1151,802L993,787Z" fill="#8c5da4" stroke="#8c5da4" stroke-width="1.51"/><path d="M1322,-101L1212,-334L1146,-89Z" fill="#b4add4" stroke="#b4add4" stroke-width="1.51"/><path d="M538,769L744,935L757,824Z" fill="#9571ae" stroke="#9571ae" stroke-width="1.51"/><path d="M295,560L326,727L567,534Z" fill="#a193c5" stroke="#a193c5" stroke-width="1.51"/><path d="M282,178L112,328L286,377Z" fill="#abbbda" stroke="#abbbda" stroke-width="1.51"/><path d="M286,377L102,512L295,560Z" fill="#a9a6cf" stroke="#a9a6cf" stroke-width="1.51"/><path d="M295,560L83,751L326,727Z" fill="#a890c4" stroke="#a890c4" stroke-width="1.51"/><path d="M370,-230L172,-53L354,-12Z" fill="#c5d7e8" stroke="#c5d7e8" stroke-width="1.51"/><path d="M757,824L971,928L993,787Z" fill="#8e65a7" stroke="#8e65a7" stroke-width="1.51"/><path d="M476,976L744,935L538,769Z" fill="#9871ac" stroke="#9871ac" stroke-width="1.51"/><path d="M64,125L112,328L282,178Z" fill="#b3c7e0" stroke="#b3c7e0" stroke-width="1.51"/><path d="M744,935L971,928L757,824Z" fill="#8f65a5" stroke="#8f65a5" stroke-width="1.51"/><path d="M1625,-78L1322,-101L1329,104Z" fill="#a798c8" stroke="#a798c8" stroke-width="1.51"/><path d="M1322,-101L1390,-244L1212,-334Z" fill="#b8aad3" stroke="#b8aad3" stroke-width="1.51"/><path d="M172,-53L64,125L282,178Z" fill="#bbd0e4" stroke="#bbd0e4" stroke-width="1.51"/><path d="M1437,346L1645,133L1329,104Z" fill="#9587bf" stroke="#9587bf" stroke-width="1.51"/><path d="M1359,576L1568,353L1437,346Z" fill="#8d6fb2" stroke="#8d6fb2" stroke-width="1.51"/><path d="M1625,589L1568,353L1359,576Z" fill="#8b62ac" stroke="#8b62ac" stroke-width="1.51"/><path d="M112,328L102,512L286,377Z" fill="#abb1d5" stroke="#abb1d5" stroke-width="1.51"/><path d="M-80,510L102,512L112,328Z" fill="#b1b0d5" stroke="#b1b0d5" stroke-width="1.51"/><path d="M1151,802L1419,747L1142,621Z" fill="#8b5ba8" stroke="#8b5ba8" stroke-width="1.51"/><path d="M1402,997L1419,747L1151,802Z" fill="#89499b" stroke="#89499b" stroke-width="1.51"/><path d="M370,-230L169,-234L172,-53Z" fill="#cedfec" stroke="#cedfec" stroke-width="1.51"/><path d="M-91,-40L-117,120L64,125Z" fill="#c7d9e9" stroke="#c7d9e9" stroke-width="1.51"/><path d="M539,-344L169,-234L370,-230Z" fill="#d0dfed" stroke="#d0dfed" stroke-width="1.51"/><path d="M744,935L1139,963L971,928Z" fill="#865a9c" stroke="#865a9c" stroke-width="1.51"/><path d="M971,928L1139,963L1151,802Z" fill="#8a549d" stroke="#8a549d" stroke-width="1.51"/><path d="M326,727L476,976L538,769Z" fill="#9e7cb4" stroke="#9e7cb4" stroke-width="1.51"/><path d="M744,935L387,1017L1139,963Z" fill="#88639d" stroke="#88639d" stroke-width="1.51"/><path d="M387,1017L476,976L326,727Z" fill="#9f76ad" stroke="#9f76ad" stroke-width="1.51"/><path d="M1568,353L1645,133L1437,346Z" fill="#917ab8" stroke="#917ab8" stroke-width="1.51"/><path d="M1645,133L1625,-78L1329,104Z" fill="#a08dc2" stroke="#a08dc2" stroke-width="1.51"/><path d="M1568,353L1827,404L1645,133Z" fill="#8f71b3" stroke="#8f71b3" stroke-width="1.51"/><path d="M1419,747L1625,589L1359,576Z" fill="#8b57a7" stroke="#8b57a7" stroke-width="1.51"/><path d="M1592,798L1625,589L1419,747Z" fill="#8949a0" stroke="#8949a0" stroke-width="1.51"/><path d="M476,976L387,1017L744,935Z" fill="#8e6ca1" stroke="#8e6ca1" stroke-width="1.51"/><path d="M83,751L387,1017L326,727Z" fill="#a681b7" stroke="#a681b7" stroke-width="1.51"/><path d="M-80,510L83,751L102,512Z" fill="#b2a0cd" stroke="#b2a0cd" stroke-width="1.51"/><path d="M102,512L83,751L295,560Z" fill="#ac9aca" stroke="#ac9aca" stroke-width="1.51"/><path d="M1390,-244L1574,-309L1212,-334Z" fill="#bca9d2" stroke="#bca9d2" stroke-width="1.51"/><path d="M1625,-78L1574,-309L1390,-244Z" fill="#b79dcc" stroke="#b79dcc" stroke-width="1.51"/><path d="M-144,342L-80,510L112,328Z" fill="#b5bada" stroke="#b5bada" stroke-width="1.51"/><path d="M-144,342L112,328L64,125Z" fill="#b6c6e0" stroke="#b6c6e0" stroke-width="1.51"/><path d="M-91,-40L64,125L172,-53Z" fill="#c8d9e9" stroke="#c8d9e9" stroke-width="1.51"/><path d="M169,-234L-91,-40L172,-53Z" fill="#d0e0ee" stroke="#d0e0ee" stroke-width="1.51"/><path d="M1402,997L1592,798L1419,747Z" fill="#883f96" stroke="#883f96" stroke-width="1.51"/><path d="M1139,963L1402,997L1151,802Z" fill="#864996" stroke="#864996" stroke-width="1.51"/><path d="M387,1017L1402,997L1139,963Z" fill="#7e5693" stroke="#7e5693" stroke-width="1.51"/><path d="M-117,120L-144,342L64,125Z" fill="#bed1e6" stroke="#bed1e6" stroke-width="1.51"/><path d="M1625,-78L1780,-253L1574,-309Z" fill="#b796c8" stroke="#b796c8" stroke-width="1.51"/><path d="M1645,133L1757,-118L1625,-78Z" fill="#a789c0" stroke="#a789c0" stroke-width="1.51"/><path d="M1852,170L1757,-118L1645,133Z" fill="#9f81ba" stroke="#9f81ba" stroke-width="1.51"/><path d="M1827,404L1568,353L1625,589Z" fill="#8c60aa" stroke="#8c60aa" stroke-width="1.51"/><path d="M1764,718L1776,585L1625,589Z" fill="#89489e" stroke="#89489e" stroke-width="1.51"/><path d="M1776,585L1827,404L1625,589Z" fill="#8a53a3" stroke="#8a53a3" stroke-width="1.51"/><path d="M1827,404L1852,170L1645,133Z" fill="#9372b1" stroke="#9372b1" stroke-width="1.51"/><path d="M1755,1028L1764,718L1592,798Z" fill="#862f8e" stroke="#862f8e" stroke-width="1.51"/><path d="M1592,798L1764,718L1625,589Z" fill="#89429d" stroke="#89429d" stroke-width="1.51"/><path d="M2078,544L1996,358L1827,404Z" fill="#8b539d" stroke="#8b539d" stroke-width="1.51"/><path d="M-264,613L-94,791L-80,510Z" fill="#b9a1ce" stroke="#b9a1ce" stroke-width="1.51"/><path d="M-80,510L-94,791L83,751Z" fill="#b499c9" stroke="#b499c9" stroke-width="1.51"/><path d="M83,751L63,1041L387,1017Z" fill="#a57bad" stroke="#a57bad" stroke-width="1.51"/><path d="M-349,159L-289,364L-144,342Z" fill="#c0cbe3" stroke="#c0cbe3" stroke-width="1.51"/><path d="M-91,-40L-249,-102L-117,120Z" fill="#d2e0ed" stroke="#d2e0ed" stroke-width="1.51"/><path d="M169,-234L-146,-255L-91,-40Z" fill="#dbe9f2" stroke="#dbe9f2" stroke-width="1.51"/><path d="M539,-344L-146,-255L169,-234Z" fill="#d8e5f1" stroke="#d8e5f1" stroke-width="1.51"/><path d="M1968,-107L1780,-253L1757,-118Z" fill="#b28abd" stroke="#b28abd" stroke-width="1.51"/><path d="M1757,-118L1780,-253L1625,-78Z" fill="#b18fc3" stroke="#b18fc3" stroke-width="1.51"/><path d="M1402,997L1610,1000L1592,798Z" fill="#82338c" stroke="#82338c" stroke-width="1.51"/><path d="M1755,1028L1610,1000L1402,997Z" fill="#762c7f" stroke="#762c7f" stroke-width="1.51"/><path d="M387,1017L1755,1028L1402,997Z" fill="#7a468a" stroke="#7a468a" stroke-width="1.51"/><path d="M-94,791L63,1041L83,751Z" fill="#b186b9" stroke="#b186b9" stroke-width="1.51"/><path d="M-349,159L-144,342L-117,120Z" fill="#c2d2e6" stroke="#c2d2e6" stroke-width="1.51"/><path d="M-144,342L-289,364L-80,510Z" fill="#babcdb" stroke="#babcdb" stroke-width="1.51"/><path d="M-146,-255L-249,-102L-91,-40Z" fill="#dde9f3" stroke="#dde9f3" stroke-width="1.51"/><path d="M-289,364L-264,613L-80,510Z" fill="#bbb2d6" stroke="#bbb2d6" stroke-width="1.51"/><path d="M-94,791L-103,1038L63,1041Z" fill="#ac80af" stroke="#ac80af" stroke-width="1.51"/><path d="M-249,-102L-349,159L-117,120Z" fill="#cedeed" stroke="#cedeed" stroke-width="1.51"/><path d="M-289,364L-291,716L-264,613Z" fill="#beacd4" stroke="#beacd4" stroke-width="1.51"/><path d="M2078,544L1827,404L1776,585Z" fill="#894d9c" stroke="#894d9c" stroke-width="1.51"/><path d="M1827,404L1996,358L1852,170Z" fill="#8e65a7" stroke="#8e65a7" stroke-width="1.51"/><path d="M1852,170L1968,-107L1757,-118Z" fill="#a680b6" stroke="#a680b6" stroke-width="1.51"/><path d="M1968,788L1776,585L1764,718Z" fill="#873995" stroke="#873995" stroke-width="1.51"/><path d="M2062,170L1968,-107L1852,170Z" fill="#9e76af" stroke="#9e76af" stroke-width="1.51"/><path d="M-349,159L-291,716L-289,364Z" fill="#bebedc" stroke="#bebedc" stroke-width="1.51"/><path d="M-264,613L-291,716L-94,791Z" fill="#bb9bcb" stroke="#bb9bcb" stroke-width="1.51"/><path d="M-261,1003L-103,1038L-94,791Z" fill="#b184b2" stroke="#b184b2" stroke-width="1.51"/><path d="M1610,1000L1755,1028L1592,798Z" fill="#7f2a87" stroke="#7f2a87" stroke-width="1.51"/><path d="M63,1041L1755,1028L387,1017Z" fill="#806095" stroke="#806095" stroke-width="1.51"/><path d="M539,-344L-313,-268L-146,-255Z" fill="#e1ecf4" stroke="#e1ecf4" stroke-width="1.51"/><path d="M-146,-255L-313,-268L-249,-102Z" fill="#e6f0f6" stroke="#e6f0f6" stroke-width="1.51"/><path d="M-249,-102L-313,-268L-349,159Z" fill="#dce8f2" stroke="#dce8f2" stroke-width="1.51"/><path d="M1996,358L2062,170L1852,170Z" fill="#936aa8" stroke="#936aa8" stroke-width="1.51"/><path d="M1996,358L2196,318L2062,170Z" fill="#88609c" stroke="#88609c" stroke-width="1.51"/><path d="M1755,1028L1968,788L1764,718Z" fill="#852889" stroke="#852889" stroke-width="1.51"/><path d="M2251,-306L1995,-303L1968,-107Z" fill="#af83b1" stroke="#af83b1" stroke-width="1.51"/><path d="M1968,-107L1995,-303L1780,-253Z" fill="#b689bb" stroke="#b689bb" stroke-width="1.51"/><path d="M1780,-253L1995,-303L1574,-309Z" fill="#bb93c3" stroke="#bb93c3" stroke-width="1.51"/><path d="M1574,-309L1995,-303L1212,-334Z" fill="#bd9ecc" stroke="#bd9ecc" stroke-width="1.51"/><path d="M1212,-334L2251,-306L986,-343Z" fill="#bea5d0" stroke="#bea5d0" stroke-width="1.51"/><path d="M1968,788L2078,544L1776,585Z" fill="#873b93" stroke="#873b93" stroke-width="1.51"/><path d="M-291,716L-261,1003L-94,791Z" fill="#ba8ebf" stroke="#ba8ebf" stroke-width="1.51"/><path d="M2264,514L2196,318L2078,544Z" fill="#7b498c" stroke="#7b498c" stroke-width="1.51"/><path d="M2078,544L2196,318L1996,358Z" fill="#835296" stroke="#835296" stroke-width="1.51"/><path d="M2062,170L2205,-19L1968,-107Z" fill="#9b75a8" stroke="#9b75a8" stroke-width="1.51"/><path d="M2244,160L2205,-19L2062,170Z" fill="#8c6c9e" stroke="#8c6c9e" stroke-width="1.51"/><path d="M2196,318L2244,160L2062,170Z" fill="#846399" stroke="#846399" stroke-width="1.51"/><path d="M1755,1028L2006,1030L1968,788Z" fill="#7b167a" stroke="#7b167a" stroke-width="1.51"/><path d="M1968,788L2174,791L2078,544Z" fill="#7e2c87" stroke="#7e2c87" stroke-width="1.51"/><path d="M2196,318L2264,514L2244,160Z" fill="#79568f" stroke="#79568f" stroke-width="1.51"/><path d="M63,1041L2006,1030L1755,1028Z" fill="#753f85" stroke="#753f85" stroke-width="1.51"/><path d="M2006,1030L2174,791L1968,788Z" fill="#7d157a" stroke="#7d157a" stroke-width="1.51"/><path d="M2174,791L2264,514L2078,544Z" fill="#793584" stroke="#793584" stroke-width="1.51"/><path d="M2244,160L2251,-306L2205,-19Z" fill="#94739e" stroke="#94739e" stroke-width="1.51"/><path d="M2205,-19L2251,-306L1968,-107Z" fill="#a27ba8" stroke="#a27ba8" stroke-width="1.51"/><path d="M1995,-303L2251,-306L1212,-334Z" fill="#bc91c2" stroke="#bc91c2" stroke-width="1.51"/><path d="M2264,514L2251,-306L2244,160Z" fill="#846797" stroke="#846797" stroke-width="1.51"/><path d="M2264,514L2280,933L2251,-306Z" fill="#754f8a" stroke="#754f8a" stroke-width="1.51"/><path d="M2174,791L2280,933L2264,514Z" fill="#712277" stroke="#712277" stroke-width="1.51"/><path d="M2006,1030L2280,933L2174,791Z" fill="#720a6e" stroke="#720a6e" stroke-width="1.51"/></svg>